<?xml version="1.0" encoding="UTF-8"?>
<svg version="1.1" xmlns="http://www.w3.org/2000/svg" width="1024" height="1024">
<path d="M0 0 C337.92 0 675.84 0 1024 0 C1024 337.92 1024 675.84 1024 1024 C686.08 1024 348.16 1024 0 1024 C0 686.08 0 348.16 0 0 Z " fill="#E9EFEF" transform="translate(0,0)"/>
<path d="M0 0 C29.29716478 -0.12049101 29.29716478 -0.12049101 43.81504536 -0.1507616 C51.65271296 -0.16735689 59.49028431 -0.18839385 67.32788086 -0.22631836 C73.5352896 -0.25634026 79.74262556 -0.27560317 85.95010489 -0.28226548 C89.23305817 -0.28615626 92.51575632 -0.29682287 95.79865456 -0.31719017 C99.4750242 -0.33908389 103.15096785 -0.34196187 106.82739258 -0.34057617 C107.90058243 -0.351362 108.97377228 -0.36214783 110.07948303 -0.3732605 C126.4943167 -0.30665849 143.68864626 6.79656054 155.6875 18.0625 C163.19688429 26.05985872 168.44115813 35.90149608 173.77856445 45.40820312 C178.05299561 52.96387964 182.77609231 60.24162671 187.44433594 67.55761719 C189.44128775 70.692819 191.42404255 73.83684491 193.40576172 76.98168945 C195.41091527 80.16267997 197.42140361 83.34028679 199.43164062 86.51806641 C200.48900648 88.19135116 201.54496639 89.86552507 202.59960938 91.54052734 C210.39671674 103.92320951 218.39545586 116.15757432 226.53320312 128.31787109 C232.44656142 137.15522463 238.26676248 146.04499575 244 155 C245.2434857 156.93880457 246.4869756 158.87760645 247.73046875 160.81640625 C249.09125121 162.94003665 250.45192599 165.06373605 251.8125 167.1875 C252.48700195 168.23945557 253.16150391 169.29141113 253.85644531 170.37524414 C257.28615309 175.73139996 260.69508874 181.09905975 264.06640625 186.4921875 C265.02873169 188.02516479 265.02873169 188.02516479 266.01049805 189.58911133 C267.23278544 191.53833723 268.44931213 193.49118999 269.65942383 195.44799805 C270.20236084 196.31207275 270.74529785 197.17614746 271.3046875 198.06640625 C271.77890137 198.82896729 272.25311523 199.59152832 272.74169922 200.37719727 C273.15693848 200.91272217 273.57217773 201.44824707 274 202 C274.66 202 275.32 202 276 202 C277.5034714 200.04789127 277.5034714 200.04789127 279.01953125 197.48828125 C279.62273193 196.51391113 280.22593262 195.53954102 280.84741211 194.53564453 C281.49589111 193.47200684 282.14437012 192.40836914 282.8125 191.3125 C283.48611572 190.22050293 284.15973145 189.12850586 284.85375977 188.00341797 C286.24363213 185.74935 287.63057261 183.49347172 289.01464844 181.23583984 C291.29263269 177.52305046 293.5889106 173.82190714 295.88745117 170.12182617 C301.97195671 160.32087513 308.00849908 150.49022609 314.05175781 140.66381836 C319.82434679 131.27954342 325.61932926 121.90929776 331.42333984 112.54443359 C333.02899091 109.95321412 334.63379304 107.36147092 336.23828125 104.76953125 C337.04495239 103.46653076 337.04495239 103.46653076 337.86791992 102.13720703 C338.95579305 100.37936028 340.04319563 98.62122223 341.13012695 96.86279297 C343.80134793 92.54284328 346.48067148 88.22842802 349.1796875 83.92578125 C355.93314823 73.13306056 362.41916414 62.21090056 368.71240234 51.14379883 C381.05047853 29.51239256 394.89855502 8.40161547 420.26318359 1.36914062 C428.15359712 -0.52108138 435.92858118 -0.34183834 443.9765625 -0.21875 C445.638224 -0.20471542 447.29989721 -0.19201406 448.96157837 -0.18054199 C453.3953144 -0.14596512 457.82861754 -0.09219238 462.26210022 -0.03411865 C466.82925507 0.02279547 471.39656015 0.06292883 475.96386719 0.10546875 C486.15901012 0.20437211 496.35370882 0.33100928 506.54846191 0.46356201 C512.22111782 0.5366904 517.89381962 0.60617064 523.56651306 0.67631531 C532.04437879 0.78152893 540.52217659 0.89116045 549 1 C549 23.77 549 46.54 549 70 C513.36 70 477.72 70 441 70 C440.34 71.98 439.68 73.96 439 76 C438.28509265 77.42933607 437.52436368 78.83688454 436.71484375 80.21484375 C436.27172852 80.97482666 435.82861328 81.73480957 435.37207031 82.51782227 C434.89866211 83.31631592 434.42525391 84.11480957 433.9375 84.9375 C433.44217773 85.78304443 432.94685547 86.62858887 432.43652344 87.49975586 C429.22889099 92.96252925 425.97010317 98.39370279 422.69042969 103.81347656 C418.93254011 110.05268332 415.31627819 116.37262522 411.6875 122.6875 C402.72679011 138.25930194 393.61338147 153.68372398 383.78125 168.72265625 C380.80350149 173.28339109 377.89965191 177.88935311 375 182.5 C369.40760564 191.38214396 363.71920585 200.19914658 358 209 C350.19693805 221.01291185 342.47845678 233.07755535 334.79833984 245.16943359 C331.86826228 249.78134227 328.93392777 254.39054015 326 259 C324.83592702 260.82942042 323.67186454 262.65884751 322.5078125 264.48828125 C320.14932214 268.19457445 317.78984664 271.90023803 315.4296875 275.60546875 C306.84950742 289.07769177 298.30361413 302.57112319 289.796875 316.08984375 C289.26594238 316.93264893 288.73500977 317.7754541 288.18798828 318.64379883 C287.18535538 320.23545116 286.18364517 321.82768531 285.18310547 323.4206543 C283.79747115 325.6194691 282.40069431 327.81075239 281 330 C280.46729492 330.84272461 279.93458984 331.68544922 279.38574219 332.55371094 C278.85368164 333.3790332 278.32162109 334.20435547 277.7734375 335.0546875 C277.29052246 335.80991699 276.80760742 336.56514648 276.31005859 337.34326172 C275.87773926 337.88998535 275.44541992 338.43670898 275 339 C274.34 339 273.68 339 273 339 C271.84594727 337.52563477 271.84594727 337.52563477 270.56640625 335.44140625 C270.0883252 334.67207764 269.61024414 333.90274902 269.11767578 333.11010742 C268.60446777 332.26939697 268.09125977 331.42868652 267.5625 330.5625 C266.4683098 328.79894412 265.37324103 327.03593308 264.27734375 325.2734375 C263.44952393 323.93684082 263.44952393 323.93684082 262.60498047 322.57324219 C260.3232981 318.91505354 257.97897013 315.29943036 255.625 311.6875 C249.61639873 302.4377898 243.70326954 293.12793652 237.78955078 283.81738281 C234.90305152 279.273017 232.01449935 274.72995872 229.125 270.1875 C228.55434814 269.2903125 227.98369629 268.393125 227.39575195 267.46875 C222.90220273 260.40808342 218.39005098 253.35943039 213.875 246.3125 C207.69066762 236.65806181 201.54564244 226.97987808 195.43554688 217.27832031 C193.46247147 214.14690199 191.48584023 211.01773541 189.5090332 207.88867188 C188.50474407 206.29896716 187.50067428 204.70912386 186.49682617 203.11914062 C184.01252014 199.1843426 181.526078 195.25092625 179.03515625 191.3203125 C173.32794713 182.30917682 167.67484651 173.26682922 162.06884766 164.19238281 C152.93845072 149.41808501 143.72269728 134.69712661 134.42651367 120.02661133 C131.23152086 114.97562842 128.07894478 109.89988216 124.94384766 104.81152344 C119.78174704 96.4337124 114.62564143 88.07749483 109 80 C108.60167969 79.36964844 108.20335937 78.73929687 107.79296875 78.08984375 C104.25948336 73.00811741 98.73303744 71.49858217 93 70 C87.7286628 69.1019655 82.63834812 68.83403934 77.31079102 68.79467773 C76.47096176 68.78477814 75.63113251 68.77487854 74.76585388 68.76467896 C72.01189923 68.73329212 69.25792738 68.70839753 66.50390625 68.68359375 C64.5857653 68.66300448 62.66762868 68.64200751 60.74949646 68.62062073 C55.71737189 68.56560377 50.68520776 68.51610517 45.65301514 68.46777344 C39.60643467 68.40854358 33.559926 68.34242842 27.51340485 68.27747345 C18.342314 68.17972054 9.17117567 68.09068909 0 68 C0 45.56 0 23.12 0 0 Z " fill="#2EBA97" transform="translate(238,382)"/>
<path d="M0 0 C4.15597679 2.96624769 8.24359861 6.02374922 12.32226562 9.09521484 C10.91126092 12.91887679 9.1337795 16.25133928 7.00585938 19.72412109 C6.33288818 20.8270752 5.65991699 21.9300293 4.96655273 23.06640625 C4.23100423 24.26353812 3.49540719 25.46064016 2.75976562 26.65771484 C1.99447841 27.90926398 1.22959275 29.16105875 0.46508789 30.41308594 C-1.12399033 33.01491717 -2.71479494 35.61568147 -4.30664062 38.21582031 C-6.55434684 41.88998189 -8.79027999 45.57117022 -11.02148438 49.25537109 C-11.3712735 49.83288116 -11.72106262 50.41039124 -12.08145142 51.00540161 C-12.78373938 52.16493293 -13.48602009 53.32446864 -14.18829346 54.48400879 C-20.70020842 65.23178558 -27.26359275 75.94700847 -33.8605957 86.64282227 C-38.2454921 93.75530142 -42.59486016 100.88845201 -46.92773438 108.03271484 C-55.93793989 122.87275449 -65.25749315 137.51287173 -74.67773438 152.09521484 C-77.30326622 148.87982473 -79.74263303 145.62162615 -82.04101562 142.16552734 C-82.98883911 140.74288574 -82.98883911 140.74288574 -83.95581055 139.29150391 C-84.62717041 138.27797852 -85.29853027 137.26445313 -85.99023438 136.22021484 C-86.69446533 135.1602832 -87.39869629 134.10035156 -88.12426758 133.00830078 C-95.37365559 122.07957513 -102.53487458 111.09376321 -109.67773438 100.09521484 C-110.8013029 98.36726612 -111.92499752 96.63939938 -113.04882812 94.91162109 C-115.72590809 90.79527656 -118.40127344 86.67782096 -121.07617188 82.56005859 C-122.71354307 80.04010438 -124.35176615 77.52070589 -125.99023438 75.00146484 C-128.71197911 70.81653704 -131.4325176 66.63082811 -134.15185547 62.44433594 C-135.13113715 60.9367122 -136.11061238 59.42921416 -137.09033203 57.921875 C-144.50870136 46.50468694 -151.87593679 35.05329269 -159.12597656 23.52832031 C-160.13950566 21.93913986 -161.17586945 20.36423203 -162.23730469 18.80664062 C-162.70491211 18.10909668 -163.17251953 17.41155273 -163.65429688 16.69287109 C-164.07018066 16.09095947 -164.48606445 15.48904785 -164.91455078 14.86889648 C-165.91599693 12.54147926 -165.57793684 11.42564553 -164.67773438 9.09521484 C-147.9857048 -9.73184176 -121.40111406 -17.26052564 -97.67773438 -21.90478516 C-96.93177002 -22.07679443 -96.18580566 -22.24880371 -95.41723633 -22.42602539 C-62.96185619 -28.0979798 -26.66295289 -18.71143775 0 0 Z " fill="#138072" transform="translate(588.677734375,412.90478515625)"/>
<path d="M0 0 C1.41872108 1.17479599 2.85357151 2.33013133 4.29492188 3.47705078 C11.21279029 9.01612745 17.59306831 14.92695344 23.83886719 21.21020508 C24.31787476 21.69070313 24.79688232 22.17120117 25.29040527 22.66625977 C32.78229399 30.19996077 39.64212686 37.89566422 45.83886719 46.52270508 C46.67666137 47.63362871 47.51654688 48.74297793 48.35839844 49.85083008 C59.60913335 64.85827219 69.67698938 82.45613277 74.83886719 100.52270508 C65.92886719 100.52270508 57.01886719 100.52270508 47.83886719 100.52270508 C46.06511719 97.18145508 44.29136719 93.84020508 42.46386719 90.39770508 C37.51281064 81.2385533 32.2020574 72.74901373 25.83886719 64.52270508 C24.94546411 63.34314928 24.05223925 62.16345848 23.15917969 60.98364258 C17.12926506 53.0967201 10.68942288 45.70377004 3.83886719 38.52270508 C3.03964844 37.67063477 2.24042969 36.81856445 1.41699219 35.94067383 C-5.2193415 29.05493544 -12.49917828 23.21012648 -20.16113281 17.52270508 C-20.97155029 16.92111572 -20.97155029 16.92111572 -21.79833984 16.30737305 C-65.94022863 -16.08872211 -125.0836157 -31.68885351 -179.43359375 -23.39624023 C-183.72834803 -22.60175098 -187.94096888 -21.5988807 -192.16113281 -20.47729492 C-193.13679199 -20.2252832 -194.11245117 -19.97327148 -195.11767578 -19.71362305 C-226.89876129 -11.36939975 -256.11915317 2.98166009 -281.16113281 24.52270508 C-282.26456091 25.44416314 -283.36879388 26.36465785 -284.47363281 27.28442383 C-295.79468558 36.77100397 -306.11018839 46.7962281 -315.16113281 58.52270508 C-315.59425781 59.07941895 -316.02738281 59.63613281 -316.47363281 60.2097168 C-326.03214643 72.5685762 -333.172412 85.54526345 -340.16113281 99.52270508 C-349.73113281 99.52270508 -359.30113281 99.52270508 -369.16113281 99.52270508 C-367.58735739 94.80137882 -365.83336732 90.55231229 -363.59863281 86.14770508 C-363.24639648 85.45217529 -362.89416016 84.75664551 -362.53125 84.04003906 C-351.64716004 62.73455283 -338.66604599 43.61136289 -322.40722656 25.99145508 C-320.7078253 24.12359143 -319.09928656 22.2516472 -317.53613281 20.27270508 C-315.00757175 17.34489753 -312.3106726 14.92145596 -309.36816406 12.42114258 C-307.07524156 10.4488234 -304.87456076 8.3961111 -302.66113281 6.33520508 C-291.49443571 -3.70285189 -279.26876354 -12.19325366 -266.16113281 -19.47729492 C-265.3920459 -19.90896973 -264.62295898 -20.34064453 -263.83056641 -20.78540039 C-183.09089728 -65.74362295 -78.18942562 -61.89269718 0 0 Z " fill="#158173" transform="translate(659.1611328125,269.477294921875)"/>
<path d="M0 0 C7.92 0 15.84 0 24 0 C24 47.81560328 3.49056633 100.03763589 -25 138 C-25.62769287 138.84860596 -25.62769287 138.84860596 -26.26806641 139.71435547 C-38.51914843 156.23873727 -52.07240504 172.91128219 -68 186 C-68.90363281 186.79148437 -69.80726563 187.58296875 -70.73828125 188.3984375 C-104.57667551 217.9617687 -158.40247294 251 -205 251 C-202.63340936 244.47980129 -198.69240323 238.82793495 -195 233 C-194.4328125 232.09507812 -193.865625 231.19015625 -193.28125 230.2578125 C-192.7759375 229.47148438 -192.270625 228.68515625 -191.75 227.875 C-191.31171875 227.19179688 -190.8734375 226.50859375 -190.421875 225.8046875 C-187.45905048 222.04417946 -184.13127287 220.52177317 -179.6171875 219.16015625 C-178.54549316 218.8259668 -177.47379883 218.49177734 -176.36962891 218.14746094 C-175.21640137 217.78942383 -174.06317383 217.43138672 -172.875 217.0625 C-108.79375797 196.33109375 -57.3361096 149.64844137 -26.84204102 90.01318359 C-21.80656742 79.90500554 -17.59709492 69.6969284 -14 59 C-13.50209961 57.56648193 -13.50209961 57.56648193 -12.99414062 56.10400391 C-6.65895045 37.71352924 -3.13013627 19.13651489 0 0 Z " fill="#158173" transform="translate(759,463)"/>
<path d="M0 0 C7.92 0 15.84 0 24 0 C24.721875 3.691875 25.44375 7.38375 26.1875 11.1875 C27.86423712 19.63732142 29.63266743 28.05614886 31.625 36.4375 C31.81860107 37.25694092 32.01220215 38.07638184 32.21166992 38.9206543 C34.07694049 46.6349086 36.11546809 54.31845026 39.25 61.625 C39.68183594 62.63304687 40.11367188 63.64109375 40.55859375 64.6796875 C41.03425781 65.77539062 41.50992188 66.87109375 42 68 C42.53299285 69.25241668 43.06552585 70.50502914 43.59765625 71.7578125 C55.8360683 100.37899187 71.40948125 126.00756954 93.01513672 148.58618164 C95.02678978 150.71357274 96.80841586 152.60660481 98.09765625 155.25390625 C99.30176416 157.58393324 100.66090135 157.87927034 103 159 C104.52149437 160.45704801 105.99603521 161.96373398 107.4375 163.5 C112.65285419 168.81447642 118.29119061 173.3081897 124.27587891 177.71582031 C125.98928768 178.99202112 127.67349385 180.2999253 129.35546875 181.6171875 C148.63974687 196.51435347 173.04862467 210.75520437 197.0234375 216.1484375 C213.33800285 219.97319762 213.33800285 219.97319762 218.125 226.3125 C219.08662048 227.89787431 220.0454994 229.48633395 220.93408203 231.11376953 C222.6461413 234.14340074 224.6017568 237.00974801 226.52099609 239.91088867 C228.72075451 243.24884962 230.85976613 246.62363105 233 250 C210.58651486 257.12383979 169.32368165 234.45088645 149.65234375 224.2734375 C130.50714475 214.1001374 112.0348647 201.78275426 96.13671875 186.98828125 C94.23815339 185.22160891 92.2954721 183.54509377 90.3125 181.875 C80.56109523 173.35243079 71.17057859 164.00189449 63.30371094 153.70605469 C62.32351223 152.42335271 61.33592026 151.14629514 60.34472656 149.87207031 C28.24632313 108.55881421 0 53.64483934 0 0 Z " fill="#158173" transform="translate(240,464)"/>
<path d="M0 0 C11.69687113 8.9884784 19.14146341 20.23035682 21.29101562 34.99951172 C22.63514912 48.87870833 18.81143634 61.67698706 10.0859375 72.640625 C0.58590881 83.38597581 -11.49843358 90.33306584 -25.875 91.24609375 C-39.15086733 91.76284619 -50.34444237 89.32727634 -61 81 C-61.61359375 80.56042969 -62.2271875 80.12085938 -62.859375 79.66796875 C-70.51787615 73.7885442 -75.08852784 65.04088723 -78 56 C-78.34675781 55.10023438 -78.69351562 54.20046875 -79.05078125 53.2734375 C-82.51355711 41.33184832 -80.08823231 27.85561601 -74.45703125 17.03515625 C-66.98104146 4.56376824 -56.69898726 -4.37033241 -42.59375 -8.30859375 C-27.56163685 -11.20064161 -12.74638377 -8.56601779 0 0 Z " fill="#148072" transform="translate(542,285)"/>
<path d="M0 0 C8.25 0 16.5 0 25 0 C16.87923492 64.22786929 -13.729899 125.03034442 -65.20947266 165.74755859 C-79.63750464 176.8558664 -94.53666363 186.22687937 -111 194 C-111.76634766 194.3619043 -112.53269531 194.72380859 -113.32226562 195.09667969 C-115.68772893 196.20373204 -118.06052311 197.29291193 -120.4375 198.375 C-121.15832764 198.70886719 -121.87915527 199.04273438 -122.62182617 199.38671875 C-127.64691658 201.63215623 -132.59236359 202.99462769 -138 204 C-136.46707928 199.78248237 -134.37770091 196.01353603 -132.0625 192.1875 C-131.67352539 191.54312988 -131.28455078 190.89875977 -130.88378906 190.23486328 C-127.8026022 185.19303151 -124.57476378 180.25922146 -121.25 175.375 C-120.80277588 174.71266357 -120.35555176 174.05032715 -119.89477539 173.36791992 C-115.25263436 166.64443326 -110.09094794 162.20060733 -103.1875 157.9375 C-90.03046465 149.59397943 -77.81017922 140.43192975 -66.62402344 129.57275391 C-64.94235472 127.94417455 -63.2409357 126.33789891 -61.5390625 124.73046875 C-25.59982536 90.31686018 -11.74637966 46.98551864 0 0 Z " fill="#2FBA97" transform="translate(721,464)"/>
<path d="M0 0 C8.25 0 16.5 0 25 0 C25.639375 3.898125 26.27875 7.79625 26.9375 11.8125 C32.48973008 42.73179962 44.707774 72.40381097 63 98 C63.74636719 99.05703125 64.49273437 100.1140625 65.26171875 101.203125 C82.22571281 124.47151182 102.16122664 143.36105035 127 158 C137.92462019 164.50395993 144.07072758 172.69818862 150.2668457 183.60498047 C153.3727124 189.05156155 156.76481273 194.02955008 160.6015625 198.99609375 C162 201 162 201 162 203 C154.50199421 202.60251536 148.61222802 199.93364602 141.875 196.75 C140.16389038 195.94743774 140.16389038 195.94743774 138.41821289 195.12866211 C120.57166387 186.60380893 104.3206015 176.48689658 89 164 C87.89852817 163.12358395 86.79697041 162.24727589 85.6953125 161.37109375 C71.16242877 149.62115047 57.9944997 136.1053721 47 121 C46.14350934 119.85005169 45.28673567 118.70031411 44.4296875 117.55078125 C38.38990512 109.35951306 33.0394941 100.83700569 28 92 C27.65727051 91.40638672 27.31454102 90.81277344 26.96142578 90.20117188 C20.86836617 79.5725892 16.27977548 68.46497602 12 57 C11.30583984 55.15341797 11.30583984 55.15341797 10.59765625 53.26953125 C4.55378015 36.18061639 0 18.15191585 0 0 Z " fill="#2FBA97" transform="translate(278,464)"/>
<path d="M0 0 C5.41611698 5.12092577 8.43391486 11.42592692 8.75 18.875 C8.38456227 26.05179106 5.92058378 33.66566871 0.8984375 38.9921875 C-6.83973939 45.24633047 -14.46056425 47.25962774 -24.31640625 46.8359375 C-29.08133586 46.20771214 -32.75256428 44.9102437 -36.8125 42.375 C-37.72 41.83875 -38.6275 41.3025 -39.5625 40.75 C-45.55546588 34.42409157 -48.30978692 26.07241737 -48.21875 17.4921875 C-47.28112411 10.29771192 -43.63432714 3.60297907 -38.25 -1.25 C-26.86882624 -9.76092161 -11.0030221 -8.38325493 0 0 Z " fill="#188275" transform="translate(271.8125,762.625)"/>
<path d="M0 0 C32.80962801 0 32.80962801 0 42 8 C47.93502588 15.45755033 48.93081735 22.60623412 48 32 C45.83135721 39.13804398 42.07902548 43.81444147 36 48 C26 52 26 52 0 52 C0 34.84 0 17.68 0 0 Z " fill="#1C8477" transform="translate(645,756)"/>
<path d="M0 0 C6.4040625 -0.0928125 6.4040625 -0.0928125 12.9375 -0.1875 C14.26515381 -0.21481201 15.59280762 -0.24212402 16.96069336 -0.27026367 C24.63053308 -0.3237782 31.89442232 -0.20562315 38.15625 4.68359375 C38.5996875 5.26238281 39.043125 5.84117187 39.5 6.4375 C39.9640625 7.01371094 40.428125 7.58992187 40.90625 8.18359375 C43.77040434 12.94013578 43.46846171 18.6254666 43 24 C41.60478891 27.89190462 40.2461021 29.76508436 37.25 32.625 C36.5075 33.40875 35.765 34.1925 35 35 C35.23196671 38.94343413 37.75345155 41.6372755 40.0625 44.6875 C44 49.91212654 44 49.91212654 44 51 C39.43496639 51.83716134 35.5339309 52.1058368 31 51 C28.43145217 48.35186337 26.54924874 45.78938265 24.55175781 42.72314453 C22.69673135 39.96354416 21.50317065 38.20877827 18.3828125 36.9140625 C15.6480109 36.59546678 15.6480109 36.59546678 12 37 C12 41.62 12 46.24 12 51 C8.04 51 4.08 51 0 51 C0 34.17 0 17.34 0 0 Z " fill="#168173" transform="translate(564,757)"/>
<path d="M0 0 C5.95563373 4.39944653 11.04757001 10.13145149 12.359375 17.57421875 C12.59135851 24.84758414 10.17554976 30.86509249 5.34375 36.328125 C-0.78614791 41.9183705 -7.04056925 44.09122433 -15.3046875 43.80859375 C-22.63938414 42.88778768 -26.8861326 39.04123798 -31.56640625 33.56640625 C-35.68868024 27.58353833 -35.73564645 21.51559051 -35.01171875 14.46875 C-33.29100319 8.27623473 -29.38714434 3.87212597 -24.01171875 0.46875 C-16.19348011 -3.31887932 -7.76329989 -4.35616026 0 0 Z " fill="#30BA98" transform="translate(320.01171875,220.53125)"/>
<path d="M0 0 C5.62801407 3.66575629 9.06267108 8.95975263 11.0390625 15.328125 C12.26408346 22.61019402 10.0770536 28.27643755 6.0390625 34.328125 C2.40995529 38.40478967 -2.56880717 41.98642689 -8.09375 42.54296875 C-10.39983423 42.57814631 -12.6602211 42.48150609 -14.9609375 42.328125 C-16.1365625 42.286875 -17.3121875 42.245625 -18.5234375 42.203125 C-24.54385935 40.67065398 -28.57466976 37.11568077 -32.3359375 32.265625 C-36.05312288 25.54609759 -36.9972263 20.34787538 -34.8359375 12.828125 C-32.75464423 7.19808284 -29.94378832 3.06940925 -24.69921875 0.0078125 C-16.30385467 -3.76153464 -8.30874422 -4.16905187 0 0 Z " fill="#30BA98" transform="translate(764.9609375,259.671875)"/>
<path d="M0 0 C8 0 8 0 10.94140625 2.34375 C11.83820353 3.37621406 12.71134195 4.42959944 13.5625 5.5 C14.03155762 6.05026855 14.50061523 6.60053711 14.98388672 7.16748047 C15.91787126 8.26607777 16.84266119 9.37256942 17.75732422 10.48730469 C19.33464791 12.40736315 20.97639929 14.26602101 22.625 16.125 C23.73875 17.40375 24.8525 18.6825 26 20 C30.455 24.95 30.455 24.95 35 30 C35.33 20.1 35.66 10.2 36 0 C39.63 0 43.26 0 47 0 C47 17.16 47 34.32 47 52 C38 52 38 52 34.5 49.1875 C33.30205327 47.81841803 32.13824244 46.41910745 31 45 C29.95199219 43.7315625 29.95199219 43.7315625 28.8828125 42.4375 C27.441583 40.68209244 26.01308123 38.91610433 24.6015625 37.13671875 C20.87202628 32.63999565 16.90814894 28.34238771 13 24 C12.67 33.57 12.34 43.14 12 53 C8.04 53 4.08 53 0 53 C0 35.51 0 18.02 0 0 Z " fill="#198375" transform="translate(400,756)"/>
<path d="M0 0 C12.54 0 25.08 0 38 0 C38 3.63 38 7.26 38 11 C29.42 11 20.84 11 12 11 C12 14.63 12 18.26 12 22 C19.59 22 27.18 22 35 22 C35 25.3 35 28.6 35 32 C27.41 32 19.82 32 12 32 C12 35.63 12 39.26 12 43 C20.58 43 29.16 43 38 43 C38 45.97 38 48.94 38 52 C25.46 52 12.92 52 0 52 C0 34.84 0 17.68 0 0 Z " fill="#1A8376" transform="translate(512,756)"/>
<path d="M0 0 C3.96 0 7.92 0 12 0 C12.33 6.6 12.66 13.2 13 20 C14.505625 18.185 16.01125 16.37 17.5625 14.5 C18.4968554 13.40058214 19.43164901 12.30153629 20.3671875 11.203125 C21.95756129 9.3135054 23.332626 7.49416322 24.6953125 5.421875 C26.34864419 3.01545505 27.50431352 1.53989166 30 0 C35.09578679 -0.65547465 39.89718876 -0.47284737 45 0 C40.95248474 5.68839983 36.55149051 10.78523845 31.69604492 15.78613281 C28.14365523 19.34332342 28.14365523 19.34332342 27 24 C30.38795977 30.86441103 36.23555172 36.79658231 41.26660156 42.53295898 C43.60204781 45.2180601 45.6211208 47.70025441 47 51 C41.81413469 51.66849045 37.16908773 51.94364685 32 51 C28.31714269 47.8811839 26.28779733 44.20368672 24 40 C23.02212217 38.58858027 22.0257066 37.18955362 21 35.8125 C20.01 34.4203125 20.01 34.4203125 19 33 C16.80020676 33.3792747 15.18506641 33.88269246 13.29296875 35.08203125 C11.29235869 38.04970358 11.42587919 41.2180968 11.3125 44.6875 C11.27833984 45.38939453 11.24417969 46.09128906 11.20898438 46.81445312 C11.12670053 48.54241387 11.0616676 50.27118072 11 52 C7.37 52 3.74 52 0 52 C0 34.84 0 17.68 0 0 Z " fill="#1A8376" transform="translate(809,757)"/>
<path d="M0 0 C1.51400391 0.01740234 1.51400391 0.01740234 3.05859375 0.03515625 C4.07050781 0.04417969 5.08242188 0.05320312 6.125 0.0625 C7.29869141 0.07990234 7.29869141 0.07990234 8.49609375 0.09765625 C8.51067627 0.95931396 8.52525879 1.82097168 8.5402832 2.70874023 C8.60182244 5.9464 8.67606158 9.18346553 8.75854492 12.4206543 C8.79152683 13.81409987 8.81963942 15.20767047 8.8425293 16.60131836 C8.62262909 29.84067109 8.62262909 29.84067109 14.49609375 41.09765625 C18.95736423 41.7660696 23.11741647 41.95932955 26.99609375 39.53515625 C30.18955099 34.34578823 30.75603004 28.83679681 30.91015625 22.8515625 C30.9295224 22.19558578 30.94888855 21.53960907 30.96884155 20.86375427 C31.02798284 18.79601497 31.07475604 16.72821796 31.12109375 14.66015625 C31.15933408 13.24672231 31.1983892 11.83331016 31.23828125 10.41992188 C31.33362827 6.97936773 31.41789662 3.53864786 31.49609375 0.09765625 C35.12609375 0.09765625 38.75609375 0.09765625 42.49609375 0.09765625 C42.57083278 4.91736547 42.62497097 9.7367296 42.66088867 14.55688477 C42.67587831 16.19301234 42.69627707 17.8291004 42.72241211 19.46508789 C43.03902235 39.80884794 43.03902235 39.80884794 37.12109375 46.97265625 C30.136232 52.62706814 24.63599102 53.52099614 15.76171875 53.44140625 C9.50258688 52.78255026 6.13917284 49.63119673 1.68359375 45.47265625 C-4.24990372 37.57124646 -3.93125582 26.90368263 -3.78515625 17.50537109 C-3.75341806 15.4409008 -3.74411509 13.37719242 -3.73828125 11.3125 C-3.64971708 0.14234466 -3.64971708 0.14234466 0 0 Z " fill="#188274" transform="translate(341.50390625,755.90234375)"/>
<path d="M0 0 C11.88 0 23.76 0 36 0 C36 3.3 36 6.6 36 10 C27.75 10 19.5 10 11 10 C11 13.63 11 17.26 11 21 C18.59 21 26.18 21 34 21 C34 23.97 34 26.94 34 30 C26.74 30.33 19.48 30.66 12 31 C11.67 34.3 11.34 37.6 11 41 C19.25 41 27.5 41 36 41 C36 44.3 36 47.6 36 51 C24.12 51 12.24 51 0 51 C0 34.17 0 17.34 0 0 Z " fill="#168173" transform="translate(708,757)"/>
<path d="M0 0 C-0.66241789 3.55079859 -1.57481771 6.67457466 -3 10 C-4.45903258 9.69078116 -5.91720722 9.37751201 -7.375 9.0625 C-8.18710937 8.88847656 -8.99921875 8.71445312 -9.8359375 8.53515625 C-12 8 -12 8 -14 7 C-20.31645868 6.58492826 -20.31645868 6.58492826 -26 9 C-26.23181009 11.38990108 -26.23181009 11.38990108 -25 14 C-22.09608889 15.7883067 -18.94272973 16.88932464 -15.75 18.0625 C-3.0166106 22.88286105 -3.0166106 22.88286105 0.28125 27.98046875 C1.60416358 31.69756832 1.75559291 35.13084318 1 39 C-1.46715833 43.2454348 -4.49327222 46.06969723 -9 48 C-12.36222618 48.4633861 -15.7336901 48.4280756 -19.125 48.4375 C-20.06754639 48.44136719 -21.01009277 48.44523438 -21.98120117 48.44921875 C-28.92029779 48.33385755 -34.3381525 47.27309245 -40 43 C-39.44271087 39.65626525 -38.64826111 36.96687001 -37 34 C-36.39671875 34.20496094 -35.7934375 34.40992188 -35.171875 34.62109375 C-34.37265625 34.89050781 -33.5734375 35.15992188 -32.75 35.4375 C-31.96109375 35.70433594 -31.1721875 35.97117187 -30.359375 36.24609375 C-26.63097035 37.43745484 -23.42920592 38.13845618 -19.5 38.125 C-18.7471875 38.12757813 -17.994375 38.13015625 -17.21875 38.1328125 C-15.026465 38.00158417 -13.10680863 37.60331338 -11 37 C-11 35.35 -11 33.7 -11 32 C-16.02820045 29.89243513 -20.97390145 27.95769931 -26.25 26.5625 C-31.6236711 25.00785302 -34.9509215 22.70105803 -38.375 18.1875 C-39.82957541 13.09648605 -39.71015016 9.3676966 -37.3125 4.75 C-27.12766068 -7.36170081 -13.40401622 -5.15893408 0 0 Z " fill="#198375" transform="translate(795,760)"/>
<path d="M0 0 C4.29 0 8.58 0 13 0 C16.56493868 7.47767625 19.8645635 14.97291781 22.875 22.6875 C23.1851001 23.47753418 23.4952002 24.26756836 23.81469727 25.08154297 C26 30.74741678 26 30.74741678 26 33 C26.66 33 27.32 33 28 33 C28.11408203 32.13866455 28.22816406 31.2773291 28.34570312 30.38989258 C29.01850067 26.90414856 30.07567766 24.02229749 31.46875 20.76171875 C32.20158203 19.03791992 32.20158203 19.03791992 32.94921875 17.27929688 C33.46097656 16.09400391 33.97273438 14.90871094 34.5 13.6875 C35.26763672 11.88055664 35.26763672 11.88055664 36.05078125 10.03710938 C39.85040794 1.14959206 39.85040794 1.14959206 41 0 C43.18639453 -0.07258946 45.37500389 -0.08373783 47.5625 -0.0625 C49.35880859 -0.04896484 49.35880859 -0.04896484 51.19140625 -0.03515625 C52.11824219 -0.02355469 53.04507813 -0.01195312 54 0 C52.37353826 5.18633363 50.32204142 10.13205792 48.19140625 15.125 C47.8240184 15.99012207 47.45663055 16.85524414 47.07810974 17.74658203 C46.30344791 19.56916586 45.5276328 21.39125988 44.75073242 23.21289062 C43.56695927 25.98954037 42.3877108 28.76807969 41.20898438 31.546875 C40.45339489 33.3230315 39.6975442 35.09907692 38.94140625 36.875 C38.59130997 37.70016113 38.24121368 38.52532227 37.88050842 39.37548828 C36.05072614 43.65839105 34.13706118 47.85822145 32 52 C28.7 52 25.4 52 22 52 C16.98653586 41.01089173 12.08284947 29.9764747 7.30944824 18.88098145 C6.7711669 17.63013283 6.23186505 16.37972286 5.69152832 15.12976074 C4.9265519 13.35872657 4.1663128 11.58564847 3.40625 9.8125 C2.96603516 8.78769531 2.52582031 7.76289062 2.07226562 6.70703125 C1 4 1 4 0 0 Z " fill="#178274" transform="translate(164,757)"/>
<path d="M0 0 C14.52 0 29.04 0 44 0 C44 3.63 44 7.26 44 11 C39.05 11 34.1 11 29 11 C29 24.53 29 38.06 29 52 C25.04 52 21.08 52 17 52 C17 38.47 17 24.94 17 11 C11.39 11 5.78 11 0 11 C0 7.37 0 3.74 0 0 Z " fill="#21877A" transform="translate(457,756)"/>
<path d="M0 0 C4.51860509 2.16308012 7.06507896 4.81765791 9.3125 9.3125 C9.84479587 14.65291106 9.99765143 18.98944896 7.5 23.8125 C6.4171875 25.05 6.4171875 25.05 5.3125 26.3125 C4.838125 26.89 4.36375 27.4675 3.875 28.0625 C-0.18518019 31.31064416 -4.43191821 31.75895822 -9.48046875 31.625 C-15.59895396 30.75866581 -19.17679103 25.92657465 -22.6875 21.3125 C-24.44597956 17.79554089 -24.22008657 14.1507963 -23.6875 10.3125 C-21.93327996 5.82075272 -19.37937544 2.42888713 -15.3125 -0.1875 C-9.59615869 -2.55288261 -5.6468881 -2.26430047 0 0 Z " fill="#31BB98" transform="translate(278.6875,305.6875)"/>
<path d="M0 0 C3.7727337 2.08049781 5.54068575 4.40450637 7.19140625 8.3515625 C8.56283633 13.09550304 8.35030369 16.97622287 6.6875 21.6875 C4.09785548 25.57196678 1.03935959 28.38657021 -3.1875 30.5 C-10.58831141 31.11673428 -13.71103256 29.3970562 -19.4375 24.625 C-22.22236533 21.24337781 -22.97531051 17.8943881 -23.625 13.625 C-22.88129755 8.31283962 -19.99176215 4.14506255 -16.0625 0.5625 C-10.80200927 -2.41844475 -5.48251674 -2.32188675 0 0 Z " fill="#E6EEED" transform="translate(259.1875,768.5)"/>
<path d="M0 0 C3.63 0 7.26 0 11 0 C11 13.86 11 27.72 11 42 C18.26 42 25.52 42 33 42 C33 44.97 33 47.94 33 51 C22.11 51 11.22 51 0 51 C0 34.17 0 17.34 0 0 Z " fill="#138072" transform="translate(294,757)"/>
<path d="M0 0 C15.3 0 15.3 0 20 3 C23.50853977 6.59850233 24.29237452 9.55495235 24.5 14.4375 C24.27366555 19.81111802 23.35661389 22.78271588 20 27 C13.26575237 32.58799272 9.85759304 31 0 31 C0 20.77 0 10.54 0 0 Z " fill="#E8EFEF" transform="translate(657,767)"/>
<path d="M0 0 C14.11583302 -0.43211734 14.11583302 -0.43211734 19 3 C19.66 3.66 20.32 4.32 21 5 C20.67241379 11.87931034 20.67241379 11.87931034 18.875 14.875 C12.85700238 18.48579857 6.8069165 18.18649086 0 18 C0 12.06 0 6.12 0 0 Z " fill="#E2EBEB" transform="translate(575,767)"/>
</svg>
